<svg width="36" height="36" viewBox="0 0 36 36" fill="none" xmlns="http://www.w3.org/2000/svg">
<g clip-path="url(#clip0)">
<path d="M21.375 30.3749H30.375C31.4871 30.3749 32.4321 30.124 33.2167 29.6869L21.375 22.623V30.3749Z" fill="#2E3192"/>
<path d="M35.8087 25.9932C35.9369 25.4211 36.0022 24.8153 36.0022 24.187V21.3745H28.0653L35.8064 25.9932" fill="#2E3192"/>
<path d="M0.19682 9.98926C0.0635093 10.5877 -0.00252528 11.1992 -5.52687e-05 11.8123V14.6248H7.96719L0.19682 9.98926Z" fill="#2E3192"/>
<path d="M14.625 5.625H5.62497C4.52078 5.625 3.58197 5.8725 2.80066 6.30338L14.625 13.3571V5.625Z" fill="#2E3192"/>
<path d="M2.83667 29.7145C3.61067 30.133 4.53711 30.3749 5.62498 30.3749H14.625V22.6821L2.83667 29.7145Z" fill="#2E3192"/>
<path d="M0 21.375V24.1875C0 24.8349 0.068625 25.4588 0.204188 26.0454L8.03362 21.375H0Z" fill="#2E3192"/>
<path d="M33.2522 6.33094C32.4613 5.88206 31.5034 5.625 30.375 5.625H21.375V13.4162L33.2522 6.33094V6.33094Z" fill="#2E3192"/>
<path d="M36 14.6252V11.8127C36 11.1973 35.9364 10.6039 35.8132 10.0425L28.1317 14.6252H36Z" fill="#2E3192"/>
<path d="M28.1318 14.625L35.8132 10.0423C35.4611 8.43131 34.6039 7.09763 33.2522 6.33094L21.375 13.4162V5.625H20.25V15.75H36V14.625H28.1318Z" fill="#E6E7E8"/>
<path d="M0 20.25V21.375H8.03362L0.204188 26.0454C0.576 27.6514 1.45913 28.9699 2.83669 29.7146L14.625 22.6823V30.375H15.75V20.25H0Z" fill="#E6E7E8"/>
<path d="M36 20.25H20.25V30.375H21.375V22.6232L33.2167 29.6876C34.5786 28.9294 35.4465 27.603 35.8065 25.9943L28.0654 21.375H36V20.25Z" fill="#E6E7E8"/>
<path d="M14.625 5.625V13.3571L2.80069 6.30338C1.43381 7.05713 0.56025 8.38125 0.196313 9.98944L7.96725 14.625H0V15.75H15.75V5.625H14.625Z" fill="#E6E7E8"/>
<path d="M20.25 15.75V5.625H15.75V15.75H0V20.25H15.75V30.375H20.25V20.25H36V15.75H20.25Z" fill="#BE1E2D"/>
<path d="M12.3401 14.6251L1.06193 7.89258C0.819489 8.25258 0.624864 8.64858 0.463989 9.07045L9.77168 14.6251H12.3384" fill="#BE1E2D"/>
<path d="M35.4881 27.0506L26.0307 21.375H23.4117L34.8378 28.2482C35.1028 27.8779 35.3212 27.4765 35.4881 27.0529" fill="#BE1E2D"/>
<path d="M34.1544 6.96973L21.3575 14.6248L23.9557 14.6265L34.9982 8.01541C34.7518 7.5671 34.4919 7.27798 34.1544 6.96973Z" fill="#BE1E2D"/>
<path d="M1.01978 28.0547C1.27281 28.4401 1.57731 28.789 1.92484 29.0919L14.6604 21.375H12.0937L1.01978 28.0547Z" fill="#BE1E2D"/>
</g>
<defs>
<clipPath id="clip0">
<rect width="36" height="36" fill="white"/>
</clipPath>
</defs>
</svg>
