<svg width="24" height="24" viewBox="0 0 24 24" fill="none" xmlns="http://www.w3.org/2000/svg">
<path d="M4.22222 22H19.7778C21.0033 22 22 21.103 22 20V11.0001C22.0002 10.8688 21.9715 10.7387 21.9156 10.6174C21.8597 10.4961 21.7778 10.3859 21.6744 10.2931L12.7856 2.2932C12.6825 2.20025 12.56 2.12652 12.4252 2.07621C12.2904 2.0259 12.1459 2 12 2C11.8541 2 11.7096 2.0259 11.5748 2.07621C11.44 2.12652 11.3175 2.20025 11.2144 2.2932L2.32556 10.2931C2.22222 10.3859 2.14027 10.4961 2.0844 10.6174C2.02853 10.7387 1.99985 10.8688 2 11.0001V20C2 21.103 2.99667 22 4.22222 22ZM9.77778 20V15.0001H14.2222V20H9.77778ZM4.22222 11.4141L12 4.41418L19.7778 11.4141L19.7789 20H16.4444V15.0001C16.4444 13.8971 15.4478 13.0001 14.2222 13.0001H9.77778C8.55222 13.0001 7.55556 13.8971 7.55556 15.0001V20H4.22222V11.4141Z" fill="white"/>
</svg>
