<svg width="334" height="324" viewBox="0 0 334 324" fill="none" xmlns="http://www.w3.org/2000/svg">
<path d="M39.819 306.446H4.76199C2.13199 306.446 0 304.314 0 301.684V135.799C0 133.169 2.13199 131.037 4.76199 131.037H39.819V306.446Z" fill="#86A2E2"/>
<path d="M140.826 306.446H39.819V131.037H140.825C143.455 131.037 145.587 133.169 145.587 135.799V301.684C145.588 304.314 143.456 306.446 140.826 306.446Z" fill="#AEC3FF"/>
<path d="M134.563 145.63H50.844V186.092H134.563V145.63Z" fill="#D2DCFF"/>
<path d="M19.168 306.447H9.58398V323.296H19.168V306.447Z" fill="#D2DCFF"/>
<path d="M49.4041 306.447H39.8201V323.296H49.4041V306.447Z" fill="#D2DCFF"/>
<path d="M109.541 306.447H99.957V323.296H109.541V306.447Z" fill="#D2DCFF"/>
<path d="M139.776 306.447H130.192V323.296H139.776V306.447Z" fill="#D2DCFF"/>
<path d="M109.694 180.509H79.8291C79.1111 180.509 78.5281 179.927 78.5281 179.208V179.132C78.5281 178.414 79.1101 177.831 79.8291 177.831H109.694C110.412 177.831 110.995 178.413 110.995 179.132V179.208C110.995 179.927 110.413 180.509 109.694 180.509Z" fill="#AEC3FF"/>
<path d="M134.563 198.51H50.844V238.972H134.563V198.51Z" fill="#D2DCFF"/>
<path d="M109.694 233.39H79.8291C79.1111 233.39 78.5281 232.808 78.5281 232.089V232.013C78.5281 231.295 79.1101 230.712 79.8291 230.712H109.694C110.412 230.712 110.995 231.294 110.995 232.013V232.089C110.995 232.808 110.413 233.39 109.694 233.39Z" fill="#AEC3FF"/>
<path d="M134.563 251.391H50.844V291.853H134.563V251.391Z" fill="#D2DCFF"/>
<path d="M109.694 286.271H79.8291C79.1111 286.271 78.5281 285.689 78.5281 284.97V284.894C78.5281 284.176 79.1101 283.593 79.8291 283.593H109.694C110.412 283.593 110.995 284.175 110.995 284.894V284.97C110.995 285.688 110.413 286.271 109.694 286.271Z" fill="#AEC3FF"/>
<path d="M9.58398 306.447H19.168V310.786L9.58398 310.312V306.447Z" fill="#AEC3FF"/>
<path d="M39.8201 306.447H49.4041V312.279L39.8201 311.805V306.447Z" fill="#AEC3FF"/>
<path d="M99.957 306.447H109.541V316.009L99.957 315.535V306.447Z" fill="#AEC3FF"/>
<path d="M139.776 306.447V317.502L130.192 317.028V306.447H139.776Z" fill="#AEC3FF"/>
<path d="M103.377 117.763H118.613C119.364 117.763 119.947 118.419 119.858 119.166L118.569 129.933C118.494 130.563 117.959 131.038 117.324 131.038H104.666C104.031 131.038 103.497 130.564 103.421 129.933L102.132 119.166C102.043 118.419 102.625 117.763 103.377 117.763Z" fill="#D2DCFF"/>
<path d="M116.225 113.369V108.474L113.296 114.039V105L110.995 110.691L108.694 105V114.039L105.764 108.474V113.369L101.496 106.507L103.377 117.763H110.995H118.613L120.494 106.507L116.225 113.369Z" fill="#6277D7"/>
<path d="M194.81 19.447C194.81 8.70401 185.335 0 171.127 0C159.319 0 155.261 6.51601 155.261 6.51601C155.261 6.51601 144.1 8.928 144.1 22.797C144.1 35.689 144.1 57.87 144.1 57.87H162.439H163.374H176.918H191.641V28.986C192.805 27.557 194.81 24.38 194.81 19.447ZM172.757 50.856C171.764 50.856 170.68 50.673 169.549 50.354V57.869H153.322V38.535C153.211 38.225 153.102 37.893 152.996 37.544C145.802 36.857 146.1 24.968 150.375 24.968C150.433 24.968 150.49 24.973 150.546 24.981V24.98C168.516 30.725 180.601 21.312 184.555 14.772C184.555 19.336 189.606 23.786 191.403 24.192C191.136 40.502 179.468 50.856 172.757 50.856Z" fill="#311643"/>
<path d="M169.548 51.389V50.354C170.679 50.673 171.763 50.856 172.756 50.856C179.468 50.856 191.136 40.502 191.401 24.191C189.604 23.785 184.553 19.335 184.553 14.771C180.599 21.312 168.514 30.724 150.544 24.979V24.98C150.488 24.972 150.432 24.967 150.373 24.967C146.098 24.967 145.8 36.856 152.994 37.543C153.1 37.892 153.209 38.224 153.32 38.534V51.54L140.611 57.531V73.217H182.844V57.382L169.548 51.389Z" fill="#FCBEB7"/>
<path d="M182.845 73.218V57.383L169.548 51.389V50.354C165.788 49.293 161.514 46.723 158.376 44.325L182.845 73.218Z" fill="#F9AFAB"/>
<path d="M160.882 37.962C163.327 37.962 165.309 35.98 165.309 33.535C165.309 31.09 163.327 29.108 160.882 29.108C158.437 29.108 156.455 31.09 156.455 33.535C156.455 35.98 158.437 37.962 160.882 37.962Z" fill="#F49795"/>
<path d="M190.832 29.86C190.271 32.833 189.33 35.544 188.142 37.956C185.801 37.84 183.939 35.905 183.939 33.535C183.939 31.09 185.921 29.109 188.365 29.109C189.278 29.108 190.127 29.385 190.832 29.86Z" fill="#F49795"/>
<path d="M183.344 20.072C180.112 20.072 177.443 22.529 177.107 25.674C175.35 24.847 173.799 25.295 172.98 25.671C172.642 22.528 169.975 20.072 166.744 20.072C163.285 20.072 160.471 22.886 160.471 26.345C160.471 29.804 163.285 32.618 166.744 32.618C170.126 32.618 172.89 29.928 173.011 26.575C173.532 26.275 175.187 25.511 177.077 26.582C177.202 29.931 179.965 32.618 183.344 32.618C186.803 32.618 189.617 29.804 189.617 26.345C189.618 22.886 186.804 20.072 183.344 20.072ZM166.744 31.797C163.738 31.797 161.291 29.351 161.291 26.345C161.291 23.338 163.737 20.892 166.744 20.892C169.751 20.892 172.197 23.338 172.197 26.345C172.197 29.351 169.751 31.797 166.744 31.797ZM183.344 31.797C180.338 31.797 177.891 29.351 177.891 26.345C177.891 23.338 180.337 20.892 183.344 20.892C186.351 20.892 188.797 23.338 188.797 26.345C188.797 29.351 186.351 31.797 183.344 31.797Z" fill="white"/>
<path d="M183.349 30.84C182.855 30.84 182.454 30.439 182.454 29.945V28.273C182.454 27.779 182.855 27.378 183.349 27.378C183.843 27.378 184.244 27.779 184.244 28.273V29.945C184.244 30.439 183.843 30.84 183.349 30.84Z" fill="#311643"/>
<path d="M167.017 30.84C166.522 30.84 166.122 30.439 166.122 29.945V28.273C166.122 27.779 166.523 27.378 167.017 27.378C167.511 27.378 167.912 27.779 167.912 28.273V29.945C167.912 30.439 167.511 30.84 167.017 30.84Z" fill="#311643"/>
<path d="M173.408 40.989C171.81 40.989 170.722 40.388 170.063 39.841C169.232 39.151 168.887 38.398 168.872 38.366C168.779 38.159 168.871 37.916 169.078 37.823C169.284 37.73 169.526 37.822 169.62 38.027C169.667 38.129 170.802 40.508 174.099 40.127C174.325 40.101 174.528 40.262 174.554 40.487C174.58 40.712 174.419 40.916 174.193 40.942C173.918 40.975 173.657 40.989 173.408 40.989Z" fill="#311643"/>
<path d="M200.246 301.405L201.925 308.384L220.236 314.134L217.603 301.405H200.246Z" fill="#FCBEB7"/>
<path d="M138.551 301.405L139.051 310.026L137.91 310.446L137.158 314.137L155.451 308.384L155.908 301.405H138.551Z" fill="#FCBEB7"/>
<path d="M234.359 316.845L219.473 310.446L220.236 314.135L201.925 308.384V313.631C201.925 315.476 202.89 317.148 204.407 318.089L205.982 322.591C206.118 322.98 206.485 323.241 206.898 323.241C207.434 323.241 207.868 322.807 207.868 322.271V319.342L220.383 323.241H233.043C234.884 323.241 236.376 321.749 236.376 319.908C236.376 318.575 235.582 317.371 234.359 316.845Z" fill="#2F3D6C"/>
<path d="M155.468 313.58L155.452 308.333L137.158 314.138L137.91 310.447L123.043 316.89C121.821 317.42 121.031 318.626 121.035 319.958C121.04 321.799 122.537 323.287 124.378 323.281L137.038 323.244L149.979 319.171L149.988 322.237C149.99 322.773 150.425 323.206 150.961 323.204C151.373 323.203 151.74 322.941 151.875 322.552L153.583 317.622C154.756 316.642 155.472 315.175 155.468 313.58Z" fill="#2F3D6C"/>
<path d="M141.32 125.886L134.566 154.486C132.616 162.745 131.847 171.24 132.284 179.715L138.552 301.404H155.909L163.32 175.113L200.247 301.404H217.604L187.043 125.885H141.32V125.886Z" fill="#6277D7"/>
<path d="M164.286 65.481C167.368 65.481 169.833 62.513 171.495 59.507H153.919C156.6 62.505 160.271 65.481 164.286 65.481Z" fill="white"/>
<path d="M194.577 67.874C192.397 63.515 188.776 60.043 184.328 58.048L173.898 53.37C173.898 53.86 173.046 56.7 171.494 59.507C169.832 62.513 167.367 65.481 164.285 65.481C160.27 65.481 156.599 62.505 153.918 59.507C151.198 56.465 149.499 53.401 149.499 53.401L137.398 59.008C132.445 61.303 128.798 65.718 127.481 71.016L120.408 99.458C119.255 104.096 120.583 109 123.919 112.422C129.488 110.468 139.944 106.398 139.944 106.398L141.318 125.887H187.04L198.399 75.519L194.577 67.874Z" fill="#FE9ECC"/>
<path d="M164.738 69.757C162.196 69.757 159.61 68.983 157.05 67.458C155.018 66.247 152.998 64.562 151.046 62.448C147.733 58.861 145.715 55.2 145.695 55.164L146.374 54.849C146.394 54.885 148.35 58.434 151.605 61.953C153.507 64.011 155.47 65.648 157.439 66.82C159.879 68.273 162.335 69.009 164.738 69.009C167.006 69.009 169.049 68.252 170.81 66.76C172.235 65.552 173.485 63.861 174.524 61.734C176.31 58.079 176.798 54.708 176.803 54.671L177.506 54.986C177.484 55.141 177.036 58.286 175.202 62.046C174.118 64.27 172.805 66.045 171.3 67.323C169.398 68.939 167.191 69.757 164.738 69.757Z" fill="white"/>
<path d="M191.983 222.996C196.571 222.996 200.291 219.276 200.291 214.688C200.291 210.1 196.571 206.38 191.983 206.38C187.395 206.38 183.675 210.1 183.675 214.688C183.675 219.276 187.395 222.996 191.983 222.996Z" fill="#4A5EA3"/>
<path d="M148.456 222.996C153.044 222.996 156.764 219.276 156.764 214.688C156.764 210.1 153.044 206.38 148.456 206.38C143.868 206.38 140.148 210.1 140.148 214.688C140.148 219.276 143.868 222.996 148.456 222.996Z" fill="#4A5EA3"/>
<path d="M137.471 62.701C137.471 65.631 135.096 68.008 132.164 68.008C130.987 68.008 129.9 67.625 129.02 66.976C130.674 63.83 133.234 61.22 136.403 59.508C137.074 60.396 137.471 61.502 137.471 62.701Z" fill="#FF78BA"/>
<path d="M168.521 132.469L203.705 131.14C205.554 131.07 207.153 129.833 207.684 128.061L223.067 76.782C223.394 75.693 222.552 74.606 221.416 74.648L185.835 75.992C184.224 76.053 182.831 77.131 182.367 78.675L166.87 130.335C166.543 131.425 167.384 132.512 168.521 132.469Z" fill="#4A5EA3"/>
<path d="M206.438 105.535L212.594 111.694L213.644 108.194L206.438 105.535Z" fill="#2F3D6C"/>
<path d="M214.985 96L206.115 96.586C205.46 96.629 204.953 97.177 204.959 97.833L204.077 97.888C203.504 97.924 203.038 98.364 202.971 98.935L202.862 99.857H202.858C202.202 99.865 201.676 100.404 201.685 101.06C201.691 101.542 201.987 101.972 202.435 102.15L204.42 102.939C204.416 103.951 205.003 104.872 205.921 105.296L212.094 108.15C212.991 108.565 213.987 108.717 214.966 108.59C217.168 108.304 218.95 106.661 219.414 104.49L219.798 102.694C220.211 100.759 219.612 98.747 218.207 97.355C217.348 96.503 216.193 96.018 214.985 96Z" fill="#FCBEB7"/>
<path d="M170.896 61.789L176.949 76.585C177.291 77.42 177.79 78.176 178.405 78.789L179.482 79.862C179.732 80.111 180.081 79.968 180.085 79.615L180.101 78.095C180.11 77.226 179.936 76.337 179.595 75.502L173.542 60.706C173.174 59.806 172.283 59.318 171.552 59.617C170.821 59.917 170.527 60.889 170.896 61.789Z" fill="#6277D7"/>
<path d="M178.854 70.603L175.531 66.026C175.103 65.436 174.44 65.06 173.714 64.994L168.141 64.489C167.382 64.42 166.628 64.664 166.053 65.164L163.15 67.687C162.731 68.051 162.375 68.482 162.096 68.962L158.534 74.614L124.763 101.899C121.431 104.591 121.137 109.565 124.127 112.631C127.101 115.681 132.047 115.532 134.833 112.31L163.352 79.324L169.35 75.636L173.777 75.788C174.806 75.823 175.712 75.118 175.931 74.112L176.174 73.824C176.593 73.327 176.763 72.666 176.634 72.029L176.381 70.78L177.812 71.704C178.021 71.839 178.282 71.865 178.513 71.774C178.982 71.59 179.151 71.012 178.854 70.603Z" fill="#FCBEB7"/>
<path d="M139.946 106.397L152.442 91.943L140.421 113.135L139.946 106.397Z" fill="#FF78BA"/>
<path d="M168.521 132.469L189.178 138.158L188.059 131.731L168.521 132.469Z" fill="#2F3D6C"/>
<path d="M192.732 64.85C192.079 65.122 191.362 65.272 190.61 65.272C187.562 65.272 185.091 62.801 185.091 59.753C185.091 59.316 185.142 58.891 185.238 58.483C188.213 59.991 190.778 62.177 192.732 64.85Z" fill="#FF78BA"/>
<path d="M129.49 113.715C132.325 113.715 134.623 111.417 134.623 108.582C134.623 105.747 132.325 103.449 129.49 103.449C126.655 103.449 124.357 105.747 124.357 108.582C124.357 111.417 126.655 113.715 129.49 113.715Z" fill="#F9AFAB"/>
<path d="M285.071 114.524H279.613V302.865H285.071V114.524Z" fill="#D2DCFF"/>
<path d="M322.234 308.323H242.449C240.984 308.323 239.797 307.135 239.797 305.671V305.517C239.797 304.052 240.985 302.865 242.449 302.865H322.235C323.7 302.865 324.887 304.053 324.887 305.517V305.671C324.887 307.136 323.699 308.323 322.234 308.323Z" fill="#D2DCFF"/>
<path d="M333.683 114.524H231L248.768 58H315.915L333.683 114.524Z" fill="#D2DCFF"/>
<path d="M285.071 114.524V147.202C283.227 147.828 281.399 148.45 279.613 149.057V114.523H285.071V114.524Z" fill="#AEC3FF"/>
<path d="M237.295 94.5L327.402 94.544L328.707 98.695H235.976L237.295 94.5Z" fill="#AEC3FF"/>
</svg>
