<svg width="434" height="420" viewBox="0 0 434 420" fill="none" xmlns="http://www.w3.org/2000/svg">
<path d="M58.8701 334.953L48.6261 419.876H45.2671L55.5101 334.953H58.8701Z" fill="#D2DCFF"/>
<path d="M13.603 334.952L12.451 344.503L3.35999 419.875H0L9.13599 344.129L10.243 334.952H13.603Z" fill="#D2DCFF"/>
<path d="M58.8701 419.875H55.5101L54.0941 408.13L52.4141 394.204L46.8891 348.397L45.2671 334.952H48.6271L50.295 348.781L54.0941 380.276L55.7731 394.202L58.8701 419.875Z" fill="#D2DCFF"/>
<path d="M104.137 419.875H100.777L92.827 353.96H92.8259L90.5339 334.952H93.8939L96.231 354.327L104.137 419.875Z" fill="#D2DCFF"/>
<path d="M13.767 278.183H10.407V329.553H13.767V278.183Z" fill="#D2DCFF"/>
<path d="M59.4181 278.183H56.0591V329.553H59.4181V278.183Z" fill="#D2DCFF"/>
<path d="M95.304 329.553H49.145C50.636 329.553 51.845 330.761 51.845 332.252C51.845 333.743 50.636 334.952 49.145 334.952H95.304C96.795 334.952 98.004 333.743 98.004 332.252C98.004 330.761 96.795 329.553 95.304 329.553Z" fill="#D2DCFF"/>
<path d="M51.8451 332.252C51.8451 330.761 50.6361 329.553 49.1451 329.553H13.8381H9.2901C7.7991 329.553 6.59009 330.761 6.59009 332.252C6.59009 333.743 7.7991 334.952 9.2901 334.952H13.8381H49.1451C50.6361 334.952 51.8451 333.743 51.8451 332.252Z" fill="#86A2E2"/>
<path d="M62.163 239.524H7.66193C5.58393 239.524 3.89893 241.209 3.89893 243.286V274.42C3.89893 276.498 5.58393 278.183 7.66193 278.183H62.163C64.241 278.183 65.926 276.498 65.926 274.42V243.286C65.926 241.208 64.241 239.524 62.163 239.524Z" fill="#D2DCFF"/>
<path d="M13.603 334.952L12.4509 344.503C11.2369 344.366 10.128 344.241 9.13696 344.13L10.244 334.952H13.603Z" fill="#AEC3FF"/>
<path d="M48.6271 334.952L50.295 348.782C49.154 348.654 48.0181 348.525 46.8891 348.398L45.2671 334.952H48.6271Z" fill="#AEC3FF"/>
<path d="M96.231 354.327C95.147 354.211 94.01 354.089 92.827 353.96H92.8259L90.5339 334.952H93.8939L96.231 354.327Z" fill="#AEC3FF"/>
<path d="M10.407 278.183H13.767V285.278L10.407 284.906V278.183Z" fill="#AEC3FF"/>
<path d="M59.4181 278.183V290.331L56.0591 289.959V278.183H59.4181Z" fill="#AEC3FF"/>
<path d="M56.6841 52.425H9.53516V109.766H56.6841V52.425Z" fill="#D2DCFF"/>
<path d="M54.5231 54.2371H11.6951V107.954H54.5231V54.2371Z" fill="#D2DCFF"/>
<path d="M11.6951 93.719L25.6321 79.782L32.5881 86.739L45.6741 73.6531L54.524 82.5029V107.954H11.6951V93.719Z" fill="#AEC3FF"/>
<path d="M24.5121 71.969C26.5755 71.969 28.2481 70.2965 28.2481 68.2332C28.2481 66.1698 26.5755 64.4971 24.5121 64.4971C22.4488 64.4971 20.7761 66.1698 20.7761 68.2332C20.7761 70.2965 22.4488 71.969 24.5121 71.969Z" fill="#AEC3FF"/>
<path d="M313.126 164.737H156.826C152.428 164.737 148.863 161.172 148.863 156.774V7.96313C148.863 3.56514 152.428 0 156.826 0H313.126C317.524 0 321.089 3.56514 321.089 7.96313V156.774C321.089 161.172 317.524 164.737 313.126 164.737Z" fill="#89AEFF"/>
<path d="M246.376 23.845H172.215C170.895 23.845 169.825 22.7751 169.825 21.4551C169.825 20.1351 170.895 19.0649 172.215 19.0649H246.376C247.696 19.0649 248.766 20.1351 248.766 21.4551C248.766 22.7751 247.696 23.845 246.376 23.845Z" fill="#D2DCFF"/>
<path d="M222.535 35.769H172.215C170.895 35.769 169.825 34.6992 169.825 33.3792C169.825 32.0592 170.895 30.989 172.215 30.989H222.535C223.855 30.989 224.925 32.0592 224.925 33.3792C224.925 34.6992 223.855 35.769 222.535 35.769Z" fill="#D2DCFF"/>
<path d="M184.785 55.3049H171.532C170.589 55.3049 169.825 54.5411 169.825 53.5981C169.825 52.6551 170.589 51.8911 171.532 51.8911H184.785C185.728 51.8911 186.492 52.6551 186.492 53.5981C186.492 54.5411 185.728 55.3049 184.785 55.3049Z" fill="#6277D7"/>
<path d="M282.025 113.927H241.068C240.125 113.927 239.361 113.163 239.361 112.22V105.323C239.361 104.38 240.125 103.616 241.068 103.616H282.025C282.968 103.616 283.732 104.38 283.732 105.323V112.22C283.732 113.163 282.968 113.927 282.025 113.927Z" fill="#D2DCFF"/>
<path d="M298.529 132.67H241.069C240.126 132.67 239.362 131.906 239.362 130.963V124.066C239.362 123.123 240.126 122.359 241.069 122.359H298.529C299.472 122.359 300.236 123.123 300.236 124.066V130.963C300.236 131.906 299.471 132.67 298.529 132.67Z" fill="#D2DCFF"/>
<path d="M195.332 143.797C195.332 142.039 196.757 140.613 198.516 140.613C186.126 140.613 176.046 130.533 176.046 118.143C176.046 105.753 186.126 95.6731 198.516 95.6731C210.906 95.6731 220.986 105.753 220.986 118.143C220.986 116.385 222.411 114.959 224.17 114.959C225.928 114.959 227.354 116.384 227.354 118.143C227.354 102.242 214.418 89.3062 198.517 89.3062C182.616 89.3062 169.68 102.242 169.68 118.143C169.68 134.044 182.616 146.98 198.517 146.98C196.758 146.981 195.332 145.555 195.332 143.797Z" fill="#D2DCFF"/>
<path d="M224.17 114.96C222.412 114.96 220.986 116.385 220.986 118.144C220.986 130.534 210.906 140.614 198.516 140.614C196.758 140.614 195.332 142.04 195.332 143.798C195.332 145.556 196.757 146.982 198.516 146.982C214.417 146.982 227.353 134.045 227.353 118.145C227.353 116.385 225.928 114.96 224.17 114.96Z" fill="#6277D7"/>
<path d="M423.059 54.1221H357.866C356.437 54.1221 355.279 55.28 355.279 56.709V121.902C355.279 123.331 356.437 124.489 357.866 124.489H423.059C424.488 124.489 425.646 123.331 425.646 121.902V56.709C425.646 55.28 424.488 54.1221 423.059 54.1221Z" fill="#89AEFF"/>
<path d="M400.542 54.1221H380.385V89.3062H400.542V54.1221Z" fill="#6277D7"/>
<path d="M366.661 270.947V269.565C366.661 269.138 366.315 268.791 365.887 268.791H333.81C332.191 268.791 330.879 270.103 330.879 271.721V274.078C330.879 275.697 332.191 277.009 333.81 277.009H365.887C366.314 277.009 366.661 276.662 366.661 276.235V274.853C366.661 274.426 366.315 274.079 365.887 274.079H334.988C334.337 274.079 333.809 273.551 333.809 272.901C333.809 272.25 334.337 271.722 334.988 271.722H365.887C366.315 271.721 366.661 271.374 366.661 270.947Z" fill="#6277D7"/>
<path d="M365.276 271.721V274.078H334.989C334.338 274.078 333.81 273.55 333.81 272.9C333.81 272.249 334.338 271.721 334.989 271.721H365.276Z" fill="#D2DCFF"/>
<path d="M364.37 262.729V261.346C364.37 260.919 364.023 260.572 363.596 260.572H336.102C334.484 260.572 333.172 261.884 333.172 263.502V265.859C333.172 267.477 334.484 268.789 336.102 268.789H363.596C364.023 268.789 364.37 268.443 364.37 268.015V266.632C364.37 266.205 364.023 265.858 363.596 265.858H337.281C336.63 265.858 336.102 265.33 336.102 264.68C336.102 264.029 336.63 263.501 337.281 263.501H363.596C364.023 263.503 364.37 263.156 364.37 262.729Z" fill="#FE9ECC"/>
<path d="M363.35 263.503V265.86H337.28C336.629 265.86 336.101 265.332 336.101 264.682C336.101 264.031 336.629 263.503 337.28 263.503H363.35Z" fill="#FFD9E8"/>
<path d="M341.066 282.432L324.069 419.854H320.694L337.691 282.432H341.066Z" fill="#D2DCFF"/>
<path d="M385.727 419.854H382.352L367.811 302.288L365.355 282.432H368.73L371.151 302.006L385.727 419.854Z" fill="#D2DCFF"/>
<path d="M171.825 282.432L167.278 319.199L154.828 419.854H151.453L163.867 319.487L168.45 282.432H171.825Z" fill="#D2DCFF"/>
<path d="M216.486 419.854H213.111L200.317 316.413L196.114 282.432H199.489L203.657 316.131L216.486 419.854Z" fill="#D2DCFF"/>
<path d="M168.45 282.432H171.825L167.278 319.199L163.867 319.487L168.45 282.432Z" fill="#AEC3FF"/>
<path d="M199.489 282.432L203.657 316.131L200.317 316.413L196.114 282.432H199.489Z" fill="#AEC3FF"/>
<path d="M371.151 302.006L367.811 302.288L365.355 282.432H368.73L371.151 302.006Z" fill="#AEC3FF"/>
<path d="M378.128 282.432H205.563V277.009H378.128C379.374 277.009 380.384 278.019 380.384 279.265V280.176C380.385 281.422 379.374 282.432 378.128 282.432Z" fill="#D2DCFF"/>
<path d="M205.563 282.432H159.904C158.658 282.432 157.648 281.422 157.648 280.176V279.265C157.648 278.019 158.658 277.009 159.904 277.009H205.563V282.432Z" fill="#86A2E2"/>
<path d="M205.525 263.821H220.662C221.409 263.821 221.987 264.473 221.899 265.214L220.619 275.911C220.544 276.537 220.013 277.008 219.382 277.008H206.806C206.175 277.008 205.644 276.537 205.569 275.911L204.289 265.214C204.2 264.474 204.779 263.821 205.525 263.821Z" fill="#D2DCFF"/>
<path d="M218.29 259.456V254.592L215.38 260.122V251.142L213.094 256.796L210.807 251.142V260.122L207.897 254.592V259.456L203.657 252.639L205.525 263.821H213.094H220.662L222.53 252.639L218.29 259.456Z" fill="#6277D7"/>
<path d="M327.45 263.115H232.75L243.308 206.201H338.008L327.45 263.115Z" fill="#D2DCFF"/>
<path d="M279.636 237.977H290.272L304.275 277.009H285.694L279.636 237.977Z" fill="#86A2E2"/>
<path d="M279.252 274.503H247.642C247.066 274.503 246.6 274.97 246.6 275.545V275.966C246.6 276.542 247.067 277.008 247.642 277.008H279.252C279.828 277.008 280.294 276.541 280.294 275.966V275.545C280.295 274.97 279.828 274.503 279.252 274.503Z" fill="#86A2E2"/>
<path d="M279.636 237.977V263.115H283.538L279.636 237.977Z" fill="#AEC3FF"/>
<path d="M131.971 117.11C118.881 119.291 102.571 114.42 100.526 111.317C95.7868 118.539 93.3788 118.313 93.3788 118.313V123.729L92.3088 122.659C91.9788 121.912 91.4548 121.172 90.6708 121.172C86.3608 121.172 86.0598 133.16 93.3138 133.853C93.4568 134.323 93.6047 134.762 93.7557 135.159V154.347H110.118V146.8C111.218 147.102 112.272 147.275 113.24 147.275C119.691 147.275 130.684 137.789 131.93 122.658C132.005 119.804 131.971 117.11 131.971 117.11Z" fill="#FCBEB7"/>
<path d="M112.111 96.572C100.827 96.572 98.5697 102.59 98.5697 102.59C93.7547 102.59 86.3827 111.392 90.8217 121.171L90.8447 121.194L93.3797 123.729V118.313C93.3797 118.313 95.7867 118.539 100.527 111.317C102.572 114.42 118.883 119.291 131.972 117.11C131.972 117.11 132.006 119.804 131.931 122.659C131.931 122.662 131.931 122.665 131.931 122.668C136.819 108.525 127.006 96.572 112.111 96.572Z" fill="#311643"/>
<path d="M107.259 126.79C106.76 126.79 106.356 126.386 106.356 125.887V124.2C106.356 123.701 106.76 123.297 107.259 123.297C107.758 123.297 108.162 123.701 108.162 124.2V125.887C108.162 126.386 107.757 126.79 107.259 126.79Z" fill="#311643"/>
<path d="M123.997 126.79C123.498 126.79 123.094 126.386 123.094 125.887V124.2C123.094 123.701 123.498 123.297 123.997 123.297C124.496 123.297 124.9 123.701 124.9 124.2V125.887C124.9 126.386 124.496 126.79 123.997 126.79Z" fill="#311643"/>
<path d="M113.896 137.327C112.285 137.327 111.188 136.721 110.523 136.169C109.685 135.473 109.337 134.714 109.322 134.682C109.228 134.474 109.321 134.229 109.529 134.135C109.737 134.041 109.981 134.134 110.075 134.341C110.122 134.443 111.266 136.843 114.591 136.458C114.818 136.432 115.023 136.594 115.049 136.822C115.075 137.049 114.913 137.254 114.686 137.28C114.411 137.312 114.147 137.327 113.896 137.327Z" fill="#311643"/>
<path d="M101.266 134.275C103.731 134.275 105.73 132.276 105.73 129.811C105.73 127.346 103.731 125.347 101.266 125.347C98.8003 125.347 96.8018 127.346 96.8018 129.811C96.8018 132.276 98.8003 134.275 101.266 134.275Z" fill="#F49795"/>
<path d="M131.466 126.105C130.9 129.103 129.952 131.836 128.753 134.269C126.392 134.152 124.515 132.201 124.515 129.811C124.515 127.346 126.513 125.348 128.978 125.348C129.899 125.347 130.755 125.626 131.466 126.105Z" fill="#F49795"/>
<path d="M123.997 116.235C120.738 116.235 118.047 118.713 117.708 121.883C115.936 121.049 114.372 121.501 113.547 121.88C113.207 118.711 110.517 116.235 107.259 116.235C103.771 116.235 100.934 119.072 100.934 122.56C100.934 126.048 103.772 128.885 107.259 128.885C110.668 128.885 113.455 126.173 113.578 122.793C114.102 122.496 115.785 121.727 117.677 122.798C117.803 126.175 120.589 128.884 123.996 128.884C127.484 128.884 130.321 126.047 130.321 122.559C130.322 119.073 127.485 116.235 123.997 116.235ZM107.259 128.059C104.227 128.059 101.761 125.593 101.761 122.561C101.761 119.53 104.227 117.063 107.259 117.063C110.29 117.063 112.757 119.529 112.757 122.561C112.757 125.592 110.29 128.059 107.259 128.059ZM123.997 128.059C120.965 128.059 118.499 125.593 118.499 122.561C118.499 119.53 120.965 117.063 123.997 117.063C127.029 117.063 129.495 119.529 129.495 122.561C129.495 125.592 127.029 128.059 123.997 128.059Z" fill="white"/>
<path d="M110.117 154.347V146.8C106.417 145.783 102.205 143.292 99.0388 140.917L110.117 154.347Z" fill="#F9AFAB"/>
<path d="M149.228 398.055H131.9L102.762 269.923L72.912 398.055H55.583L71.73 254.305L135.75 254.304L149.228 398.055Z" fill="#6277D7"/>
<path d="M133.275 405.022V417.268C133.275 418.696 134.433 419.854 135.861 419.854H170.595C170.925 419.854 171.193 419.586 171.193 419.256V416.898C171.193 415.867 170.603 414.927 169.675 414.479L150.09 405.023H133.275V405.022Z" fill="#2F3D6C"/>
<path d="M71.0269 405.022V417.268C71.0269 418.696 69.8689 419.854 68.4409 419.854H33.7069C33.3759 419.854 33.1089 419.586 33.1089 419.256V416.898C33.1089 415.867 33.6989 414.927 34.6269 414.479L54.2119 405.023H71.0269V405.022Z" fill="#2F3D6C"/>
<path d="M131.9 398.055L133.204 405.022H150.09L149.228 398.055H131.9Z" fill="#FCBEB7"/>
<path d="M55.5829 398.055L54.2129 405.022H71.0269L72.9119 398.055H55.5829Z" fill="#FCBEB7"/>
<path d="M71.3828 257.388L136.383 261.06L135.75 254.304L71.7298 254.305" fill="#4A5EA3"/>
<path d="M131.509 192.351L135.75 254.304H71.73L75.653 210.157L74.783 186.598L71.46 189.91L56.687 178.553L64.625 165.617C66.589 162.418 69.426 159.846 72.803 158.207L91.012 149.369L91.678 149.046L93.757 148.037C93.757 148.037 103.259 154.273 110.09 148.037L113.739 149.413L114.481 149.692L133.78 156.967C136.802 158.106 139.262 160.378 140.637 163.302L148.822 180.713L131.509 192.351Z" fill="#89AEFF"/>
<path d="M113.738 149.414C110.607 151.637 106.875 152.835 102.957 152.835C98.83 152.835 94.907 151.505 91.678 149.047L91.012 149.37C94.405 152.045 98.5699 153.497 102.958 153.497C107.165 153.497 111.167 152.163 114.481 149.692L113.738 149.414Z" fill="white"/>
<path d="M72.0079 160.319C72.0079 163.358 69.5439 165.821 66.5049 165.821C65.8679 165.821 65.258 165.713 64.689 165.514C66.446 162.691 68.8869 160.363 71.7789 158.743C71.9279 159.243 72.0079 159.772 72.0079 160.319Z" fill="#4A62D3"/>
<path d="M75.3338 319.775C79.915 319.775 83.6288 316.061 83.6288 311.48C83.6288 306.899 79.915 303.185 75.3338 303.185C70.7526 303.185 67.0388 306.899 67.0388 311.48C67.0388 316.061 70.7526 319.775 75.3338 319.775Z" fill="#4A5EA3"/>
<path d="M130.671 319.775C135.252 319.775 138.966 316.061 138.966 311.48C138.966 306.899 135.252 303.185 130.671 303.185C126.09 303.185 122.376 306.899 122.376 311.48C122.376 316.061 126.09 319.775 130.671 319.775Z" fill="#4A5EA3"/>
<path d="M103.475 246.102L51.3369 260.98C50.4789 261.225 49.5849 260.728 49.3409 259.87L39.9949 227.119C39.7499 226.261 40.2469 225.367 41.1049 225.123L93.2429 210.245C94.1009 210 94.9949 210.497 95.2389 211.355L104.585 244.107C104.83 244.963 104.333 245.857 103.475 246.102Z" fill="#4A5EA3"/>
<path d="M122.278 190.862H108.282C107.817 190.862 107.439 190.485 107.439 190.019V163.85C107.439 163.385 107.816 163.007 108.282 163.007H122.278C122.743 163.007 123.121 163.384 123.121 163.85V190.019C123.121 190.485 122.744 190.862 122.278 190.862Z" fill="#4A5EA3"/>
<path d="M160.49 208.296L148.821 180.713L139.917 186.666L127.408 175.704L124.851 166.938C124.815 166.658 124.595 166.438 124.316 166.401C123.09 166.239 122.039 167.272 122.179 168.5L122.618 172.34L117.976 172.955C116.724 173.121 115.451 173.011 114.246 172.632L109.927 171.274C108.63 170.866 107.251 171.601 106.867 172.905L105.2 172.519C104.386 172.331 103.571 172.825 103.361 173.633L103.349 173.677C103.169 174.372 103.491 175.099 104.128 175.431C103.788 176.76 104.577 178.117 105.901 178.478L105.939 178.488C105.582 179.827 106.243 181.228 107.504 181.804L110.772 183.297C112.001 183.859 113.348 184.114 114.697 184.04L122.121 183.436L147.33 216.385L147.335 216.391C149.565 219.052 153.366 219.967 156.624 218.443C160.438 216.661 162.15 212.169 160.49 208.296Z" fill="#FCBEB7"/>
<path d="M140.827 163.709C140.231 163.94 139.584 164.067 138.907 164.067C135.968 164.067 133.585 161.684 133.585 158.744C133.585 158.135 133.688 157.55 133.876 157.004C136.854 158.156 139.276 160.41 140.636 163.303L140.827 163.709Z" fill="#4A62D3"/>
<path d="M141.508 188.062L155.016 195.357L158.07 202.575L141.508 188.062Z" fill="#F9AFAB"/>
<path d="M71.6959 255.172L52.574 221.849L56.6199 220.695L71.6959 255.172Z" fill="#2F3D6C"/>
<path d="M152.822 217.251C155.72 217.251 158.07 214.901 158.07 212.003C158.07 209.105 155.72 206.755 152.822 206.755C149.924 206.755 147.574 209.105 147.574 212.003C147.574 214.901 149.924 217.251 152.822 217.251Z" fill="#F9AFAB"/>
<path d="M53.0949 197.063C53.0949 199.772 51.1599 202.03 48.5949 202.527L47.6579 200.347C46.7159 198.158 46.8609 195.652 48.0489 193.586L49.1178 191.726C51.4178 192.41 53.0949 194.541 53.0949 197.063Z" fill="#F9AFAB"/>
<path d="M85.96 249.138L79.449 246.232C78.998 246.031 78.6489 245.655 78.4799 245.191L77.5359 242.592L80.8259 243.399L81.8749 245.652C82.2279 246.41 83.12 246.751 83.889 246.42L82.5189 242.284C82.2629 241.626 81.7689 241.088 81.1349 240.776L74.2599 237.394L62.4 198.925L71.4609 189.911L56.6879 178.554L48.0499 193.587C46.8619 195.654 46.7179 198.159 47.6589 200.348L71.6329 255.172L76.3909 255.391C76.9629 255.418 77.5029 255.128 77.7969 254.637L78.3149 253.772L80.819 253.977C81.355 254.021 81.876 253.785 82.197 253.352L82.7859 252.557L83.137 252.65C84.096 252.903 85.103 252.465 85.572 251.591L87.3099 252.171C87.7019 250.965 87.12 249.655 85.96 249.138Z" fill="#FCBEB7"/>
<path d="M433.099 372.595H385.84V419.854H433.099V372.595Z" fill="#D2DCFF"/>
<path d="M385.84 372.595H359.807V419.854H385.84V372.595Z" fill="#AEC3FF"/>
<path d="M385.84 380.675H359.807V382.059H385.84V380.675Z" fill="#86A2E2"/>
<path d="M433.099 380.675H385.84V382.059H433.099V380.675Z" fill="#AEC3FF"/>
<path d="M418.164 388.825H400.774C400.444 388.825 400.176 388.557 400.176 388.227V388.192C400.176 387.862 400.444 387.594 400.774 387.594H418.164C418.494 387.594 418.762 387.862 418.762 388.192V388.227C418.762 388.558 418.494 388.825 418.164 388.825Z" fill="#86A2E2"/>
</svg>
