<svg width="118" height="126" viewBox="0 0 118 126" fill="none" xmlns="http://www.w3.org/2000/svg">
<path d="M110.133 126H7.86667C5.65417 126 3.78993 125.221 2.27396 123.662C0.757986 122.104 0 120.258 0 118.125V102.375C0 100.16 0.757986 98.2939 2.27396 96.7764C3.78993 95.2588 5.65417 94.5 7.86667 94.5H110.133C112.264 94.5 114.108 95.2588 115.665 96.7764C117.222 98.2939 118 100.16 118 102.375V118.125C118 120.258 117.222 122.104 115.665 123.662C114.108 125.221 112.264 126 110.133 126ZM62.9333 102.375H55.0667C52.8542 102.375 50.9899 103.134 49.474 104.651C47.958 106.169 47.2 108.015 47.2 110.188C47.2 112.362 47.958 114.229 49.474 115.787C50.9899 117.346 52.8542 118.125 55.0667 118.125H62.9333C65.0639 118.125 66.9076 117.346 68.4646 115.787C70.0215 114.229 70.8 112.362 70.8 110.188C70.8 108.015 70.0215 106.169 68.4646 104.651C66.9076 103.134 65.0639 102.375 62.9333 102.375ZM110.133 86.625H7.86667C5.65417 86.625 3.78993 85.8457 2.27396 84.2871C0.757986 82.7285 0 80.8828 0 78.75V39.375C0 37.1602 2.0691 33.9814 6.20729 29.8389C10.3455 25.6963 13.5208 23.625 15.7333 23.625V7.875C15.7333 5.66016 16.4913 3.79395 18.0073 2.27637C19.5233 0.758789 21.3875 0 23.6 0H94.4C96.5306 0 98.3743 0.758789 99.9313 2.27637C101.488 3.79395 102.267 5.66016 102.267 7.875V23.625C104.397 23.625 107.552 25.6963 111.731 29.8389C115.91 33.9814 118 37.1602 118 39.375V78.75C118 80.8828 117.222 82.7285 115.665 84.2871C114.108 85.8457 112.264 86.625 110.133 86.625ZM62.9333 74.8125C62.9333 75.8789 63.3226 76.8018 64.101 77.5811C64.8795 78.3604 65.8014 78.75 66.8667 78.75H74.7333C75.7986 78.75 76.7205 78.3604 77.499 77.5811C78.2774 76.8018 78.6667 75.8789 78.6667 74.8125V66.9375C78.6667 65.8711 78.2774 64.9482 77.499 64.1689C76.7205 63.3896 75.7986 63 74.7333 63H66.8667C65.8014 63 64.8795 63.3896 64.101 64.1689C63.3226 64.9482 62.9333 65.8711 62.9333 66.9375V74.8125ZM62.9333 51.1875C62.9333 52.2539 63.3226 53.1768 64.101 53.9561C64.8795 54.7354 65.8014 55.125 66.8667 55.125H74.7333C75.7986 55.125 76.7205 54.7354 77.499 53.9561C78.2774 53.1768 78.6667 52.2539 78.6667 51.1875V43.3125C78.6667 42.2461 78.2774 41.3232 77.499 40.5439C76.7205 39.7646 75.7986 39.375 74.7333 39.375H66.8667C65.8014 39.375 64.8795 39.7646 64.101 40.5439C63.3226 41.3232 62.9333 42.2461 62.9333 43.3125V51.1875ZM39.3333 74.8125C39.3333 75.8789 39.7226 76.8018 40.501 77.5811C41.2795 78.3604 42.2014 78.75 43.2667 78.75H51.1333C52.1986 78.75 53.1205 78.3604 53.899 77.5811C54.6774 76.8018 55.0667 75.8789 55.0667 74.8125V66.9375C55.0667 65.8711 54.6774 64.9482 53.899 64.1689C53.1205 63.3896 52.1986 63 51.1333 63H43.2667C42.2014 63 41.2795 63.3896 40.501 64.1689C39.7226 64.9482 39.3333 65.8711 39.3333 66.9375V74.8125ZM39.3333 51.1875C39.3333 52.2539 39.7226 53.1768 40.501 53.9561C41.2795 54.7354 42.2014 55.125 43.2667 55.125H51.1333C52.1986 55.125 53.1205 54.7354 53.899 53.9561C54.6774 53.1768 55.0667 52.2539 55.0667 51.1875V43.3125C55.0667 42.2461 54.6774 41.3232 53.899 40.5439C53.1205 39.7646 52.1986 39.375 51.1333 39.375H43.2667C42.2014 39.375 41.2795 39.7646 40.501 40.5439C39.7226 41.3232 39.3333 42.2461 39.3333 43.3125V51.1875ZM15.7333 74.8125C15.7333 75.8789 16.1226 76.8018 16.901 77.5811C17.6795 78.3604 18.6014 78.75 19.6667 78.75H27.5333C28.5986 78.75 29.5205 78.3604 30.299 77.5811C31.0774 76.8018 31.4667 75.8789 31.4667 74.8125V66.9375C31.4667 65.8711 31.0774 64.9482 30.299 64.1689C29.5205 63.3896 28.5986 63 27.5333 63H19.6667C18.6014 63 17.6795 63.3896 16.901 64.1689C16.1226 64.9482 15.7333 65.8711 15.7333 66.9375V74.8125ZM27.5333 39.375H19.6667C18.6014 39.375 17.6795 39.7646 16.901 40.5439C16.1226 41.3232 15.7333 42.2461 15.7333 43.3125V51.1875C15.7333 52.2539 16.1226 53.1768 16.901 53.9561C17.6795 54.7354 18.6014 55.125 19.6667 55.125H27.5333C28.5986 55.125 29.5205 54.7354 30.299 53.9561C31.0774 53.1768 31.4667 52.2539 31.4667 51.1875V43.3125C31.4667 42.2461 31.0774 41.3232 30.299 40.5439C29.5205 39.7646 28.5986 39.375 27.5333 39.375ZM86.5333 19.6875C86.5333 18.6211 86.1441 17.6982 85.3656 16.9189C84.5872 16.1396 83.6653 15.75 82.6 15.75H35.4C34.3347 15.75 33.4128 16.1396 32.6344 16.9189C31.8559 17.6982 31.4667 18.6211 31.4667 19.6875V27.5625C31.4667 28.6289 31.8559 29.5518 32.6344 30.3311C33.4128 31.1104 34.3347 31.5 35.4 31.5H82.6C83.6653 31.5 84.5872 31.1104 85.3656 30.3311C86.1441 29.5518 86.5333 28.6289 86.5333 27.5625V19.6875ZM102.267 43.3125C102.267 42.2461 101.877 41.3232 101.099 40.5439C100.32 39.7646 99.3986 39.375 98.3333 39.375H90.4667C89.4014 39.375 88.4795 39.7646 87.701 40.5439C86.9226 41.3232 86.5333 42.2461 86.5333 43.3125V51.1875C86.5333 52.2539 86.9226 53.1768 87.701 53.9561C88.4795 54.7354 89.4014 55.125 90.4667 55.125H98.3333C99.3986 55.125 100.32 54.7354 101.099 53.9561C101.877 53.1768 102.267 52.2539 102.267 51.1875V43.3125ZM102.267 66.9375C102.267 65.8711 101.877 64.9482 101.099 64.1689C100.32 63.3896 99.3986 63 98.3333 63H90.4667C89.4014 63 88.4795 63.3896 87.701 64.1689C86.9226 64.9482 86.5333 65.8711 86.5333 66.9375V74.8125C86.5333 75.8789 86.9226 76.8018 87.701 77.5811C88.4795 78.3604 89.4014 78.75 90.4667 78.75H98.3333C99.3986 78.75 100.32 78.3604 101.099 77.5811C101.877 76.8018 102.267 75.8789 102.267 74.8125V66.9375Z" fill="#FA8900"/>
</svg>
