<svg id="Layer_1" data-name="Layer 1" xmlns="http://www.w3.org/2000/svg" viewBox="0 0 1160 1160"><defs><style>.cls-1,.cls-2{fill:#fff;}.cls-2{stroke:#ff3717;stroke-miterlimit:10;}.cls-3{fill:#000fff;}.cls-4{fill:#fffffc;}</style></defs><title>logos</title><circle class="cls-1" cx="580" cy="580" r="580"/><rect class="cls-2" x="220" y="220" width="120" height="120"/><rect class="cls-2" x="340" y="220" width="120" height="120"/><rect class="cls-2" x="460" y="220" width="120" height="120"/><rect class="cls-2" x="580" y="220" width="120" height="120"/><rect class="cls-2" x="700" y="220" width="120" height="120"/><rect class="cls-2" x="820" y="220" width="120" height="120"/><rect class="cls-2" x="220" y="340" width="120" height="120"/><rect class="cls-2" x="340" y="340" width="120" height="120"/><rect class="cls-2" x="460" y="340" width="120" height="120"/><rect class="cls-2" x="580" y="340" width="120" height="120"/><rect class="cls-2" x="700" y="340" width="120" height="120"/><rect class="cls-2" x="820" y="340" width="120" height="120"/><rect class="cls-2" x="220" y="460" width="120" height="120"/><rect class="cls-2" x="340" y="460" width="120" height="120"/><rect class="cls-2" x="460" y="460" width="120" height="120"/><rect class="cls-2" x="580" y="460" width="120" height="120"/><rect class="cls-2" x="700" y="460" width="120" height="120"/><rect class="cls-2" x="820" y="460" width="120" height="120"/><rect class="cls-2" x="220" y="580" width="120" height="120"/><rect class="cls-2" x="340" y="580" width="120" height="120"/><rect class="cls-2" x="460" y="580" width="120" height="120"/><rect class="cls-2" x="580" y="580" width="120" height="120"/><rect class="cls-2" x="700" y="580" width="120" height="120"/><rect class="cls-2" x="820" y="580" width="120" height="120"/><rect class="cls-2" x="220" y="700" width="120" height="120"/><rect class="cls-2" x="340" y="700" width="120" height="120"/><rect class="cls-2" x="460" y="700" width="120" height="120"/><rect class="cls-2" x="580" y="700" width="120" height="120"/><rect class="cls-2" x="700" y="700" width="120" height="120"/><rect class="cls-2" x="820" y="700" width="120" height="120"/><rect class="cls-2" x="220" y="820" width="120" height="120"/><rect class="cls-2" x="340" y="820" width="120" height="120"/><rect class="cls-2" x="460" y="820" width="120" height="120"/><rect class="cls-2" x="580" y="820" width="120" height="120"/><rect class="cls-2" x="700" y="820" width="120" height="120"/><rect class="cls-2" x="820" y="820" width="120" height="120"/><circle class="cls-3" cx="580" cy="580" r="509.7"/><path class="cls-1" d="M926.44,325H801.63A69.63,69.63,0,0,0,739,363.7l-199,398L370.13,422a18.66,18.66,0,0,1,16.69-27h0a18.66,18.66,0,0,1,16.69,10.32l45.17,90.33h0A70,70,0,0,0,480,401.74l-19-38A69.62,69.62,0,0,0,398.37,325H300a35,35,0,0,0-31.3,50.65L507.24,852.74a31.16,31.16,0,0,0,2.17,4.17h0A38.3,38.3,0,0,0,541.94,875H758.37A69.62,69.62,0,0,0,821,836.3L871.3,735.65h0A70,70,0,0,0,777.39,767L768,785.65A35,35,0,0,1,736.74,805H608a7,7,0,0,1-6.26-10.13L796.47,405.32A18.66,18.66,0,0,1,813.16,395h0a18.66,18.66,0,0,1,16.69,27L808.7,464.35h0A70,70,0,0,0,902.61,433l40.52-81A18.66,18.66,0,0,0,926.44,325Z" transform="translate(-20 -20)"/><path class="cls-4" d="M815,257" transform="translate(-20 -20)"/></svg>